<?xml version="1.0" encoding="UTF-8"?>
<svg width="1762px" height="1130px" viewBox="0 0 1762 1130" version="1.1" xmlns="http://www.w3.org/2000/svg" xmlns:xlink="http://www.w3.org/1999/xlink">
    <title>Group</title>
    <defs>
        <rect id="path-1" x="0" y="0" width="1762" height="1130"></rect>
        <linearGradient x1="50%" y1="0%" x2="50%" y2="100%" id="linearGradient-3">
            <stop stop-color="#FFFFFF" offset="0%"></stop>
            <stop stop-color="#FBF3F1" offset="100%"></stop>
        </linearGradient>
        <linearGradient x1="50%" y1="24.4417953%" x2="50%" y2="100%" id="linearGradient-4">
            <stop stop-color="#D6FFF7" offset="0%"></stop>
            <stop stop-color="#9AF2DB" offset="100%"></stop>
        </linearGradient>
    </defs>
    <g id="Page-1" stroke="none" stroke-width="1" fill="none" fill-rule="evenodd">
        <g id="Group">
            <mask id="mask-2" fill="white">
                <use xlink:href="#path-1"></use>
            </mask>
            <use id="Rectangle" fill="#FFFFFF" fill-rule="nonzero" xlink:href="#path-1"></use>
            <polygon id="Path-4" fill="url(#linearGradient-3)" fill-rule="nonzero" opacity="0.561616443" mask="url(#mask-2)" transform="translate(996.139886, 951.500000) scale(-1, 1) translate(-996.139886, -951.500000) " points="263.639886 1131.41166 263.639886 500 1728.63989 1403"></polygon>
            <path d="M1595.62635,375.114123 L1130.18684,651.22039 L808.29405,468.48318 L279.925781,701.98737" id="Path-5" stroke="url(#linearGradient-4)" stroke-width="3" opacity="0.3" stroke-linecap="round" stroke-linejoin="round" stroke-dasharray="20,1" fill-rule="nonzero" mask="url(#mask-2)"></path>
            <polygon id="Path-8" fill="#E5FFF8" fill-rule="nonzero" mask="url(#mask-2)" points="1233.9284 481.920207 1406.62149 582.412891 1578.47474 481.151148 1406.62149 381.427523"></polygon>
            <g id="dot-grid" opacity="0.200000003" mask="url(#mask-2)" fill="#B6E2D6" fill-rule="nonzero" stroke="#FFFFFF" stroke-width="4">
                <g transform="translate(-384.000000, 449.000000)" id="Oval-9">
                    <ellipse cx="387.436614" cy="103.827323" rx="33.2427096" ry="17.3834903"></ellipse>
                    <ellipse cx="392.964184" cy="194.038902" rx="33.2427096" ry="17.3834903"></ellipse>
                    <ellipse cx="483.146636" cy="153.097473" rx="33.2427096" ry="17.3834903"></ellipse>
                </g>
            </g>
            <g id="dot-grid" opacity="0.200000003" mask="url(#mask-2)" fill="#B6E2D6" fill-rule="nonzero" stroke="#FFFFFF" stroke-width="4">
                <g transform="translate(686.626350, 657.498001)" id="Oval-9">
                    <ellipse cx="35.6366046" cy="103.827323" rx="33.2427096" ry="17.3834903"></ellipse>
                    <ellipse cx="211.536609" cy="200.336866" rx="33.2427096" ry="17.3834903"></ellipse>
                    <ellipse cx="211.536609" cy="19.9208298" rx="33.2427096" ry="17.3834903"></ellipse>
                    <ellipse cx="387.436614" cy="103.827323" rx="33.2427096" ry="17.3834903"></ellipse>
                    <ellipse cx="121.6677" cy="145.715072" rx="33.2427096" ry="17.3834903"></ellipse>
                    <ellipse cx="301.405519" cy="145.710666" rx="33.2427096" ry="17.3834903"></ellipse>
                    <ellipse cx="211.223066" cy="103.831728" rx="33.2427096" ry="17.3834903"></ellipse>
                    <ellipse cx="121.6677" cy="62.8902988" rx="33.2427096" ry="17.3834903"></ellipse>
                    <ellipse cx="301.405519" cy="62.8902988" rx="33.2427096" ry="17.3834903"></ellipse>
                    <ellipse cx="393.277727" cy="290.54404" rx="33.2427096" ry="17.3834903"></ellipse>
                    <ellipse cx="569.177732" cy="194.034497" rx="33.2427096" ry="17.3834903"></ellipse>
                    <ellipse cx="303.408817" cy="235.922246" rx="33.2427096" ry="17.3834903"></ellipse>
                    <ellipse cx="483.146636" cy="235.917841" rx="33.2427096" ry="17.3834903"></ellipse>
                    <ellipse cx="392.964184" cy="194.038902" rx="33.2427096" ry="17.3834903"></ellipse>
                    <ellipse cx="483.146636" cy="153.097473" rx="33.2427096" ry="17.3834903"></ellipse>
                </g>
            </g>
            <ellipse id="Oval" fill="#C4FFF0" fill-rule="nonzero" mask="url(#mask-2)" cx="631.905374" cy="544.773822" rx="31" ry="16"></ellipse>
        </g>
    </g>
</svg>